# xmcd
#
# Track frame offsets:
#	150
#	13526
#	27560
#	43255
#	58078
#	71704
#	86698
#	98478
#	113610
#	128354
#	144701
#	158810
#	171523
#
# Disc length: 2490 seconds
#
# Revision: 0
# Processed by: cddbd v1.5.2PL0 Copyright (c) Steve Scherf et al.
# Submitted via: EZCDAudioConverter 5.0.1.1
#
DISCID=ae09b80d
DTITLE=Dylan Scott
DYEAR=1900
DGENRE=Country
TTITLE0=Lay It On Me
TTITLE1=My Town
TTITLE2=Passenger Seat
TTITLE3=My Girl
TTITLE4=Back
TTITLE5=Crazy Over Me
TTITLE6=Ball Cap
TTITLE7=Beer Buddies
TTITLE8=Freak Show
TTITLE9=I Lost You
TTITLE10=Living Room
TTITLE11=Rules
TTITLE12=Do You Think About Me
EXTD=
EXTT0=
EXTT1=
EXTT2=
EXTT3=
EXTT4=
EXTT5=
EXTT6=
EXTT7=
EXTT8=
EXTT9=
EXTT10=
EXTT11=
EXTT12=
PLAYORDER=
